<svg width="111" height="29" viewBox="0 0 111 29" fill="none" xmlns="http://www.w3.org/2000/svg">
<path d="M1.44 6.2H5.28V23H1.44V6.2ZM19.4466 6.2V9.896H15.1266V23H11.2866V9.896H6.96656V6.2H19.4466Z" fill="#8A3BFC"/>
<path d="M30.1275 20.36H36.9675V23H27.3675V6.2H30.1275V20.36ZM41.2959 8.72C40.9759 9.04 40.5919 9.2 40.1439 9.2C39.6959 9.2 39.3039 9.04 38.9679 8.72C38.6479 8.384 38.4879 7.992 38.4879 7.544C38.4879 7.096 38.6479 6.712 38.9679 6.392C39.2879 6.056 39.6799 5.888 40.1439 5.888C40.6079 5.888 40.9999 6.056 41.3199 6.392C41.6399 6.712 41.7999 7.096 41.7999 7.544C41.7999 7.992 41.6319 8.384 41.2959 8.72ZM38.8479 23V11H41.4399V23H38.8479ZM54.0015 11H56.5455V22.448C56.5455 24.272 55.9455 25.672 54.7455 26.648C53.5455 27.624 52.0895 28.112 50.3775 28.112C47.6095 28.112 45.7135 27.144 44.6895 25.208L46.9215 23.912C47.5455 25.144 48.7135 25.76 50.4255 25.76C51.5455 25.76 52.4175 25.464 53.0415 24.872C53.6815 24.296 54.0015 23.488 54.0015 22.448V20.984C53.0255 22.376 51.6335 23.072 49.8255 23.072C48.1295 23.072 46.6975 22.472 45.5295 21.272C44.3615 20.056 43.7775 18.592 43.7775 16.88C43.7775 15.168 44.3615 13.712 45.5295 12.512C46.6975 11.296 48.1295 10.688 49.8255 10.688C51.6335 10.688 53.0255 11.384 54.0015 12.776V11ZM47.4495 19.568C48.1855 20.288 49.0975 20.648 50.1855 20.648C51.2735 20.648 52.1775 20.288 52.8975 19.568C53.6335 18.848 54.0015 17.952 54.0015 16.88C54.0015 15.808 53.6335 14.912 52.8975 14.192C52.1775 13.472 51.2735 13.112 50.1855 13.112C49.0975 13.112 48.1855 13.472 47.4495 14.192C46.7295 14.912 46.3695 15.808 46.3695 16.88C46.3695 17.952 46.7295 18.848 47.4495 19.568ZM69.0707 11H71.6627V23H69.0707V21.272C68.0947 22.632 66.6947 23.312 64.8707 23.312C63.2227 23.312 61.8147 22.704 60.6467 21.488C59.4787 20.256 58.8947 18.76 58.8947 17C58.8947 15.224 59.4787 13.728 60.6467 12.512C61.8147 11.296 63.2227 10.688 64.8707 10.688C66.6947 10.688 68.0947 11.36 69.0707 12.704V11ZM62.5667 19.76C63.2867 20.48 64.1907 20.84 65.2787 20.84C66.3667 20.84 67.2707 20.48 67.9907 19.76C68.7107 19.024 69.0707 18.104 69.0707 17C69.0707 15.896 68.7107 14.984 67.9907 14.264C67.2707 13.528 66.3667 13.16 65.2787 13.16C64.1907 13.16 63.2867 13.528 62.5667 14.264C61.8467 14.984 61.4867 15.896 61.4867 17C61.4867 18.104 61.8467 19.024 62.5667 19.76Z" fill="white"/>
<path d="M89 15H102.256V18H89V15Z" fill="#8A3BFC"/>
<path d="M102.256 15V18L104 16.5L102.256 15Z" fill="#8A3BFC"/>
<rect x="101.671" y="7" width="13.172" height="2.84282" transform="rotate(45 101.671 7)" fill="#8A3BFC"/>
<rect x="99.6602" y="23.6553" width="13.1935" height="2.84282" transform="rotate(-45 99.6602 23.6553)" fill="#8A3BFC"/>
</svg>
