<svg width="61" height="65" viewBox="0 0 61 65" fill="none" xmlns="http://www.w3.org/2000/svg">
<circle cx="29.5" cy="27.5" r="27.5" fill="#F6F1FD"/>
<g filter="url(#filter0_d)">
<path d="M6.88879 54.8896C4.74091 52.7418 4.74091 49.2593 6.88879 47.1115L47.5134 6.48689C49.6613 4.339 53.1437 4.33901 55.2915 6.48689C57.4394 8.63477 57.4394 12.1172 55.2915 14.2651L14.667 54.8896C12.5191 57.0375 9.03668 57.0375 6.88879 54.8896Z" fill="#5F27AF"/>
<path d="M54.8896 55.1112C52.7418 57.2591 49.2593 57.2591 47.1115 55.1112L6.48689 14.4867C4.339 12.3388 4.33901 8.85636 6.48689 6.70848C8.63477 4.5606 12.1172 4.5606 14.2651 6.70848L54.8896 47.333C57.0375 49.4809 57.0375 52.9633 54.8896 55.1112Z" fill="#5F27AF"/>
</g>
<path d="M6.88879 52.8896C4.74091 50.7418 4.74091 47.2593 6.88879 45.1115L47.5134 4.48689C49.6613 2.339 53.1437 2.33901 55.2915 4.48689C57.4394 6.63477 57.4394 10.1172 55.2915 12.2651L14.667 52.8896C12.5191 55.0375 9.03668 55.0375 6.88879 52.8896Z" fill="url(#paint0_linear)"/>
<path d="M54.8896 53.1112C52.7418 55.2591 49.2593 55.2591 47.1115 53.1112L6.48689 12.4867C4.339 10.3388 4.33901 6.85636 6.48689 4.70848C8.63477 2.5606 12.1172 2.5606 14.2651 4.70848L54.8896 45.333C57.0375 47.4809 57.0375 50.9633 54.8896 53.1112Z" fill="url(#paint1_linear)"/>
<defs>
<filter id="filter0_d" x="0.875977" y="4.87598" width="60.0265" height="59.8462" filterUnits="userSpaceOnUse" color-interpolation-filters="sRGB">
<feFlood flood-opacity="0" result="BackgroundImageFix"/>
<feColorMatrix in="SourceAlpha" type="matrix" values="0 0 0 0 0 0 0 0 0 0 0 0 0 0 0 0 0 0 127 0"/>
<feOffset dy="4"/>
<feGaussianBlur stdDeviation="2"/>
<feColorMatrix type="matrix" values="0 0 0 0 0.457409 0 0 0 0 0.22 0 0 0 0 0.8 0 0 0 0.15 0"/>
<feBlend mode="normal" in2="BackgroundImageFix" result="effect1_dropShadow"/>
<feBlend mode="normal" in="SourceGraphic" in2="effect1_dropShadow" result="shape"/>
</filter>
<linearGradient id="paint0_linear" x1="32.1505" y1="2.87598" x2="28.7565" y2="51.3794" gradientUnits="userSpaceOnUse">
<stop stop-color="#8A3BFC"/>
<stop offset="1" stop-color="#7538CC"/>
</linearGradient>
<linearGradient id="paint1_linear" x1="32.1505" y1="2.87598" x2="28.7565" y2="51.3794" gradientUnits="userSpaceOnUse">
<stop stop-color="#8A3BFC"/>
<stop offset="1" stop-color="#7538CC"/>
</linearGradient>
</defs>
</svg>
