<svg width="20" height="14" viewBox="0 0 20 14" fill="none" xmlns="http://www.w3.org/2000/svg">
<path d="M10.1208 13.25C13.0142 13.25 11.9825 11.4183 12.2058 10.8917C12.2025 10.4983 12.1992 10.12 12.2125 9.89C12.3958 9.94167 12.8283 10.1608 13.7217 11.0292C15.1008 12.4208 15.4533 13.25 16.5675 13.25H18.6183C19.2683 13.25 19.6067 12.9808 19.7758 12.755C19.9392 12.5367 20.0992 12.1533 19.9242 11.5567C19.4667 10.12 16.7983 7.63917 16.6325 7.3775C16.6575 7.32917 16.6975 7.265 16.7183 7.23167H16.7167C17.2433 6.53583 19.2533 3.52417 19.5492 2.31917C19.55 2.3175 19.5508 2.315 19.5508 2.3125C19.7108 1.7625 19.5642 1.40583 19.4125 1.20417C19.1842 0.9025 18.8208 0.75 18.33 0.75H16.2792C15.5925 0.75 15.0717 1.09583 14.8083 1.72667C14.3675 2.8475 13.1292 5.1525 12.2008 5.96833C12.1725 4.8125 12.1917 3.93 12.2067 3.27417C12.2367 1.995 12.3333 0.75 11.0058 0.75H7.7825C6.95083 0.75 6.155 1.65833 7.01667 2.73667C7.77 3.68167 7.2875 4.20833 7.45 6.83C6.81667 6.15083 5.69 4.31667 4.89333 1.9725C4.67 1.33833 4.33167 0.750833 3.37917 0.750833H1.32833C0.496667 0.750833 0 1.20417 0 1.96333C0 3.66833 3.77417 13.25 10.1208 13.25ZM3.37917 2.00083C3.56 2.00083 3.57833 2.00083 3.7125 2.38167C4.52833 4.78417 6.35833 8.33917 7.695 8.33917C8.69917 8.33917 8.69917 7.31 8.69917 6.9225L8.69833 3.8375C8.64333 2.81667 8.27167 2.30833 8.0275 2L10.9508 2.00333C10.9525 2.0175 10.9342 5.41583 10.9592 6.23917C10.9592 7.40833 11.8875 8.07833 13.3367 6.61167C14.8658 4.88583 15.9233 2.30583 15.9658 2.20083C16.0283 2.05083 16.0825 2 16.2792 2H18.33H18.3383C18.3375 2.0025 18.3375 2.005 18.3367 2.0075C18.1492 2.8825 16.2983 5.67083 15.6792 6.53667C15.6692 6.55 15.66 6.56417 15.6508 6.57833C15.3783 7.02333 15.1567 7.515 15.6883 8.20667H15.6892C15.7375 8.265 15.8633 8.40167 16.0467 8.59167C16.6167 9.18 18.5717 11.1917 18.745 11.9917C18.63 12.01 18.505 11.9967 16.5675 12.0008C16.155 12.0008 15.8325 11.3842 14.6017 10.1425C13.495 9.06583 12.7767 8.62583 12.1225 8.62583C10.8525 8.62583 10.945 9.65667 10.9567 10.9033C10.9608 12.255 10.9525 11.8275 10.9617 11.9125C10.8875 11.9417 10.675 12 10.1208 12C4.83333 12 1.39 3.6075 1.2575 2.00333C1.30333 1.99917 1.93417 2.00167 3.37917 2.00083Z" fill="#8A3BFC"/>
</svg>
