<svg width="52" height="52" viewBox="0 0 52 52" fill="none" xmlns="http://www.w3.org/2000/svg">
<g clip-path="url(#clip0)">
<path d="M32.9327 45.9336L31.1993 47.6669H20.7994L19.0661 45.9336H0.866211V47.6669C0.866211 49.5814 2.41841 51.1336 4.33285 51.1336H47.6659C49.5808 51.1336 51.1325 49.5814 51.1325 47.6669V45.9336H32.9327Z" fill="#E2D3F8"/>
<path d="M19.0674 32.0671C19.0674 35.896 22.1718 39.0005 26.0007 39.0005C29.83 39.0005 32.934 35.896 32.934 32.0671C32.934 28.2378 29.83 25.1338 26.0007 25.1338C22.1718 25.1338 19.0674 28.2378 19.0674 32.0671ZM28.4518 34.5182L26.0007 32.0671L23.5501 34.5182L26.0007 32.0671L23.5501 29.6161L26.0007 32.0671L28.4518 29.6161L26.0007 32.0671L28.4518 34.5182Z" fill="#E2D3F8"/>
<path d="M2.60059 18.2002V45.9333H19.0671L20.8005 47.6667H31.2004L32.9337 45.9333H49.4003V18.2002H2.60059ZM46.8003 34.6668V43.3334H5.20057V20.8002H46.8003V34.6668Z" fill="#E2D3F8"/>
<path d="M32.934 32.0671C32.934 35.896 29.83 39.0005 26.0007 39.0005C22.1718 39.0005 19.0674 35.896 19.0674 32.0671C19.0674 28.2378 22.1718 25.1338 26.0007 25.1338C29.83 25.1338 32.934 28.2378 32.934 32.0671Z" fill="#E2D3F8"/>
<path d="M36.5839 7.93875C36.2699 7.93917 35.9808 7.77033 35.8272 7.49696C33.837 3.93806 30.0784 1.73332 26.0007 1.73332C21.9234 1.73332 18.1648 3.93806 16.1746 7.49696C15.9401 7.91421 15.4116 8.06274 14.9944 7.82788C14.5767 7.59344 14.4286 7.0649 14.663 6.64765C16.9604 2.54285 21.2967 0 26.0007 0C30.7047 0 35.0414 2.54285 37.3384 6.64765C37.4895 6.91594 37.4865 7.2439 37.3312 7.50965C37.1759 7.77541 36.8915 7.93875 36.5839 7.93875Z" fill="#8A3BFC"/>
<path d="M33.5839 9.67193C33.269 9.67235 32.9787 9.50181 32.8255 9.22675C31.4523 6.74314 28.838 5.20109 25.9997 5.20109C23.1619 5.20109 20.5476 6.74314 19.1739 9.22675C18.9416 9.64485 18.4139 9.7955 17.9954 9.56275C17.5773 9.33043 17.4267 8.80273 17.659 8.38421C19.3386 5.35048 22.5322 3.46777 25.9997 3.46777C29.4672 3.46777 32.6613 5.35048 34.3405 8.38421C34.5732 8.80273 34.4226 9.33043 34.0045 9.56275C33.8759 9.63511 33.7311 9.67235 33.5839 9.67193Z" fill="#8A3BFC"/>
<path d="M30.5858 11.4053C30.268 11.4057 29.9752 11.2318 29.8232 10.9521C29.0666 9.54502 27.5982 8.66693 26.0003 8.66693C24.4028 8.66693 22.9339 9.54502 22.1777 10.9521C21.9492 11.3731 21.4232 11.5289 21.0025 11.3008C20.5815 11.0723 20.4257 10.5463 20.6538 10.1256C21.7135 8.15954 23.7667 6.93359 26.0003 6.93359C28.2338 6.93359 30.2871 8.15954 31.3471 10.1256C31.5756 10.5458 31.4203 11.0718 31.0001 11.3008C30.8732 11.3702 30.7305 11.4062 30.5858 11.4053Z" fill="#8A3BFC"/>
<path d="M25.9994 15.6004C24.5636 15.6004 23.3994 14.4362 23.3994 13.0004C23.3994 11.5646 24.5636 10.4004 25.9994 10.4004C27.4357 10.4004 28.5994 11.5646 28.5994 13.0004C28.5994 14.4362 27.4357 15.6004 25.9994 15.6004ZM25.9994 12.1337C25.5208 12.1337 25.1327 12.5218 25.1327 13.0004C25.1327 13.479 25.5208 13.8671 25.9994 13.8671C26.478 13.8671 26.8661 13.479 26.8661 13.0004C26.8661 12.5218 26.478 12.1337 25.9994 12.1337Z" fill="#8A3BFC"/>
<path d="M6.06633 29.4669H4.33301V19.9336H47.6661V29.4157H45.9327V21.6669H6.06633V29.4669Z" fill="#8A3BFC"/>
<path d="M51.133 45.0671H50.2663V18.2006C50.2663 17.722 49.8783 17.334 49.3997 17.334H2.59998C2.12137 17.334 1.73332 17.722 1.73332 18.2006V45.0671H0.866661C0.388051 45.0671 0 45.4552 0 45.9338V47.6671C0.00296223 50.0589 1.94152 51.9975 4.3333 52.0004H47.6664C50.0586 51.9975 51.9971 50.0589 51.9997 47.6671V45.9338C51.9997 45.4552 51.6116 45.0671 51.133 45.0671ZM3.46664 19.0673H48.533V45.0671H32.9331C32.8197 45.0676 32.7071 45.0904 32.6022 45.1336C32.4968 45.1772 32.4012 45.2406 32.3204 45.321L30.8414 46.8005H21.1587L19.6793 45.321C19.5989 45.2406 19.5028 45.1772 19.3979 45.1336C19.2929 45.0904 19.1804 45.0676 19.0665 45.0671H3.46664V19.0673ZM50.2663 47.6671C50.2663 49.103 49.1026 50.2671 47.6664 50.2671H4.3333C2.89747 50.2671 1.73332 49.103 1.73332 47.6671V46.8005H18.7081L20.1871 48.2799C20.3496 48.4424 20.5701 48.5338 20.7999 48.5338H31.1998C31.43 48.5338 31.6501 48.4424 31.8126 48.2799L33.292 46.8005H50.2663V47.6671Z" fill="#8A3BFC"/>
<path d="M47.6661 34.667H45.9327V42.4669H6.06633V34.667H4.33301V44.2003H47.6661V34.667Z" fill="#8A3BFC"/>
<path d="M26.0002 39.8666C30.3081 39.8666 33.8002 36.3745 33.8002 32.0666C33.8002 27.7587 30.3081 24.2666 26.0002 24.2666C21.6927 24.2666 18.2002 27.7587 18.2002 32.0666C18.2057 36.372 21.6948 39.8611 26.0002 39.8666ZM26.0002 25.9999C29.3509 25.9999 32.0669 28.7159 32.0669 32.0666C32.0669 35.4169 29.3509 38.1333 26.0002 38.1333C22.6499 38.1333 19.9335 35.4169 19.9335 32.0666C19.9373 28.7176 22.6516 26.0037 26.0002 25.9999Z" fill="#8A3BFC"/>
<path d="M38.999 31.2002H40.7324V32.9335H38.999V31.2002Z" fill="#8A3BFC"/>
<path d="M42.4668 31.2002H44.2001V32.9335H42.4668V31.2002Z" fill="#8A3BFC"/>
<path d="M45.9336 31.2002H47.6669V32.9335H45.9336V31.2002Z" fill="#8A3BFC"/>
<path d="M35.5332 31.2002H37.2665V32.9335H35.5332V31.2002Z" fill="#8A3BFC"/>
<path d="M11.2666 31.2002H12.9999V32.9335H11.2666V31.2002Z" fill="#8A3BFC"/>
<path d="M7.7998 31.2002H9.53314V32.9335H7.7998V31.2002Z" fill="#8A3BFC"/>
<path d="M4.33301 31.2002H6.06634V32.9335H4.33301V31.2002Z" fill="#8A3BFC"/>
<path d="M14.7334 31.2002H16.4667V32.9335H14.7334V31.2002Z" fill="#8A3BFC"/>
<path d="M27.2254 32.0667L29.0645 30.2276C29.3929 29.8873 29.3883 29.3469 29.0539 29.0126C28.7196 28.6783 28.1792 28.6737 27.839 29.002L25.9999 30.8412L24.1612 29.002C23.8209 28.6737 23.2805 28.6783 22.9462 29.0126C22.6119 29.3469 22.6073 29.8873 22.9356 30.2276L24.7748 32.0667L22.9356 33.9058C22.7101 34.1233 22.62 34.4454 22.6991 34.7484C22.7787 35.0514 23.0152 35.2883 23.3182 35.3675C23.6212 35.4466 23.9432 35.3565 24.1612 35.1313L25.9999 33.2922L27.839 35.1313C28.1792 35.4597 28.7196 35.4551 29.0539 35.1208C29.3883 34.7864 29.3929 34.2456 29.0645 33.9058L27.2254 32.0667Z" fill="#8A3BFC"/>
</g>
<defs>
<clipPath id="clip0">
<rect width="52" height="52" fill="white"/>
</clipPath>
</defs>
</svg>
