<svg width="52" height="52" viewBox="0 0 52 52" fill="none" xmlns="http://www.w3.org/2000/svg">
<g clip-path="url(#clip0)">
<path d="M26 10.5586C23.3025 10.5586 21.125 8.38028 21.125 5.68359C21.125 2.99341 23.3025 0.808594 26 0.808594C28.6902 0.808594 30.875 2.99341 30.875 5.68359C30.875 8.38028 28.6902 10.5586 26 10.5586Z" fill="#E2D3F8"/>
<path d="M45.5 30.8789C42.8025 30.8789 40.625 28.6933 40.625 26.0039C40.625 23.3064 42.8025 21.1289 45.5 21.1289C48.1902 21.1289 50.375 23.3064 50.375 26.0039C50.375 28.6925 48.1902 30.8789 45.5 30.8789Z" fill="#E2D3F8"/>
<path d="M11.6348 16.5148C8.94458 16.5148 6.75977 14.3292 6.75977 11.6398C6.75977 8.9423 8.94458 6.7648 11.6348 6.75586C14.3241 6.75586 16.5098 8.94148 16.5098 11.6398C16.5098 12.9885 15.9654 14.2073 15.0798 15.084C14.1941 15.9704 12.9754 16.5148 11.6348 16.5148Z" fill="#E2D3F8"/>
<path d="M40.3652 16.5137C39.0173 16.5137 37.7985 15.9693 36.9121 15.0829C36.0346 14.2062 35.4902 12.9874 35.4902 11.6387C35.4902 8.94117 37.6685 6.76367 40.3652 6.76367C43.0554 6.76367 45.2321 8.94117 45.2321 11.6387C45.2321 14.3281 43.0546 16.5137 40.3652 16.5137Z" fill="#E2D3F8"/>
<path d="M6.5 30.8792C3.8025 30.8792 1.625 28.6936 1.625 26.0042C1.625 23.3067 3.8025 21.1211 6.5 21.1211C9.19019 21.1211 11.375 23.3059 11.375 25.9961V26.0042C11.3669 28.7017 9.19019 30.8711 6.5 30.8792Z" fill="#E2D3F8"/>
<path d="M26 40.6293C27.4625 40.6293 28.8438 40.2799 30.0625 39.6543V42.2543L28.4375 43.8793L26 43.0668L23.5625 43.8793L21.9375 42.2543V39.6543C23.1562 40.2799 24.5375 40.6293 26 40.6293Z" fill="#E2D3F8"/>
<path d="M34.9375 28.4414V31.6914C34.9375 35.1608 32.9558 38.1752 30.0625 39.6539C28.8438 40.2803 27.4625 40.6289 26 40.6289C24.5375 40.6289 23.1562 40.2795 21.9375 39.6539C19.045 38.176 17.0625 35.1608 17.0625 31.6914V28.4414L19.5 26.0039C19.5 26.0039 22.5144 27.6289 26 27.6289C29.4775 27.6289 32.5 26.0039 32.5 26.0039L34.9375 28.4414Z" fill="#E2D3F8"/>
<path d="M32.4997 26.0039L32.4972 26.0055V31.6914C32.4972 35.1608 30.5156 38.1752 27.6222 39.6539C26.7488 40.1024 25.79 40.4022 24.7793 40.5395C25.179 40.594 25.5853 40.6289 25.9997 40.6289C27.4622 40.6289 28.8434 40.2795 30.0622 39.6539C32.9555 38.176 34.9372 35.1608 34.9372 31.6914V28.4414L32.4997 26.0039Z" fill="#E2D3F8"/>
<path d="M19.5 26.0039L17.0625 28.4414V24.3789C17.0625 20.3327 20.3296 17.0664 24.375 17.0664H30.875V20.3164C33.1175 20.3164 34.9375 22.1283 34.9375 24.3789V28.4414L32.5 26.0039C32.5 26.0039 29.4775 27.6289 26 27.6289C22.5144 27.6289 19.5 26.0039 19.5 26.0039Z" fill="#E2D3F8"/>
<path d="M34.9375 28.4414V24.3789C34.9375 22.1283 33.1175 20.3164 30.875 20.3164V17.0664H28.4375V20.3164C28.4375 21.6627 29.5287 22.7539 30.875 22.7539C31.7712 22.7539 32.5 23.4827 32.5 24.3789V26.0039L34.9375 28.4414Z" fill="#A785DA"/>
<path d="M23.5625 43.8789L26 43.0664L28.4375 43.8789L30.0625 42.2539H33.3125C36.0027 42.2539 38.1875 44.4314 38.1875 47.1289V47.3564V49.5664C38.1875 50.4602 37.4562 51.1914 36.5625 51.1914H15.4375C14.5356 51.1914 13.8125 50.4602 13.8125 49.5664V47.3564V47.1289C13.8125 44.4314 15.99 42.2539 18.6875 42.2539H21.9375L23.5625 43.8789Z" fill="#E2D3F8"/>
<path d="M33.313 42.2539H30.873C33.5632 42.2539 35.748 44.4314 35.748 47.1289V47.3564V49.5664C35.748 50.4602 35.0168 51.1914 34.123 51.1914H36.563C37.4567 51.1914 38.188 50.4602 38.188 49.5664V47.3564V47.1289C38.188 44.4314 36.0032 42.2539 33.313 42.2539Z" fill="#A785DA"/>
<path d="M13.8125 47.9377C13.3632 47.9377 13 47.5745 13 47.1252C13 43.9897 15.5521 41.4385 18.6875 41.4385C19.1368 41.4385 19.5 41.8017 19.5 42.251C19.5 42.7003 19.1368 43.0635 18.6875 43.0635C16.4474 43.0635 14.625 44.8851 14.625 47.1252C14.625 47.5745 14.2618 47.9377 13.8125 47.9377Z" fill="#8A3BFC"/>
<path d="M21.9375 43.0643L18.6875 43.0635C18.2382 43.0635 17.875 42.6995 17.875 42.251C17.875 41.8017 18.239 41.4385 18.6875 41.4385L21.9375 41.4393C22.3868 41.4393 22.75 41.8033 22.75 42.2518C22.75 42.7011 22.386 43.0643 21.9375 43.0643Z" fill="#8A3BFC"/>
<path d="M13.8125 50.376C13.3632 50.376 13 50.0128 13 49.5635V47.3584C13 46.9091 13.3632 46.5459 13.8125 46.5459C14.2618 46.5459 14.625 46.9091 14.625 47.3584V49.5635C14.625 50.0128 14.2618 50.376 13.8125 50.376Z" fill="#8A3BFC"/>
<path d="M38.1875 47.9377C37.7382 47.9377 37.375 47.5745 37.375 47.1252C37.375 44.8851 35.5526 43.0635 33.3125 43.0635C32.8632 43.0635 32.5 42.7003 32.5 42.251C32.5 41.8017 32.8632 41.4385 33.3125 41.4385C36.4479 41.4385 39 43.9897 39 47.1252C39 47.5745 38.6368 47.9377 38.1875 47.9377Z" fill="#8A3BFC"/>
<path d="M30.0625 43.0643C29.614 43.0643 29.25 42.7011 29.25 42.2518C29.25 41.8033 29.6132 41.4393 30.0625 41.4393L33.3125 41.4385C33.761 41.4385 34.125 41.8017 34.125 42.251C34.125 42.6995 33.7618 43.0635 33.3125 43.0635L30.0625 43.0643Z" fill="#8A3BFC"/>
<path d="M38.1875 50.376C37.7382 50.376 37.375 50.0128 37.375 49.5635V47.3584C37.375 46.9091 37.7382 46.5459 38.1875 46.5459C38.6368 46.5459 39 46.9091 39 47.3584V49.5635C39 50.0128 38.6368 50.376 38.1875 50.376Z" fill="#8A3BFC"/>
<path d="M36.5625 52.001H15.4375C14.9882 52.001 14.625 51.6378 14.625 51.1885C14.625 50.7392 14.9882 50.376 15.4375 50.376H36.5625C37.0118 50.376 37.375 50.7392 37.375 51.1885C37.375 51.6378 37.0118 52.001 36.5625 52.001Z" fill="#8A3BFC"/>
<path d="M21.9375 43.0647C21.4882 43.0647 21.125 42.7015 21.125 42.2522V39.6514C21.125 39.2021 21.4882 38.8389 21.9375 38.8389C22.3868 38.8389 22.75 39.2021 22.75 39.6514V42.2522C22.75 42.7015 22.3868 43.0647 21.9375 43.0647Z" fill="#8A3BFC"/>
<path d="M30.0625 43.0639C29.6132 43.0639 29.25 42.7007 29.25 42.2514V39.6514C29.25 39.2021 29.6132 38.8389 30.0625 38.8389C30.5118 38.8389 30.875 39.2021 30.875 39.6514V42.2514C30.875 42.7007 30.5118 43.0639 30.0625 43.0639Z" fill="#8A3BFC"/>
<path d="M26 41.4385C20.6237 41.4385 16.25 37.0648 16.25 31.6885C16.25 31.2392 16.6132 30.876 17.0625 30.876C17.5118 30.876 17.875 31.2392 17.875 31.6885C17.875 36.1686 21.5199 39.8135 26 39.8135C30.4801 39.8135 34.125 36.1686 34.125 31.6885C34.125 31.2392 34.4882 30.876 34.9375 30.876C35.3868 30.876 35.75 31.2392 35.75 31.6885C35.75 37.0648 31.3763 41.4385 26 41.4385Z" fill="#8A3BFC"/>
<path d="M17.0625 32.5018C16.6132 32.5018 16.25 32.1386 16.25 31.6893V24.376C16.25 23.9267 16.6132 23.5635 17.0625 23.5635C17.5118 23.5635 17.875 23.9267 17.875 24.376V31.6893C17.875 32.1386 17.5118 32.5018 17.0625 32.5018Z" fill="#8A3BFC"/>
<path d="M34.9375 32.5026C34.4882 32.5026 34.125 32.1394 34.125 31.6901V24.376C34.125 23.9267 34.4882 23.5635 34.9375 23.5635C35.3868 23.5635 35.75 23.9267 35.75 24.376V31.6901C35.75 32.1394 35.3868 32.5026 34.9375 32.5026Z" fill="#8A3BFC"/>
<path d="M34.9375 25.1885C34.4882 25.1885 34.125 24.8253 34.125 24.376C34.125 22.5836 32.6674 21.126 30.875 21.126C30.4257 21.126 30.0625 20.7628 30.0625 20.3135C30.0625 19.8642 30.4257 19.501 30.875 19.501C33.5636 19.501 35.75 21.6874 35.75 24.376C35.75 24.8253 35.3868 25.1885 34.9375 25.1885Z" fill="#8A3BFC"/>
<path d="M30.875 21.126C30.4257 21.126 30.0625 20.7628 30.0625 20.3135V17.0635C30.0625 16.6142 30.4257 16.251 30.875 16.251C31.3243 16.251 31.6875 16.6142 31.6875 17.0635V20.3135C31.6875 20.7628 31.3243 21.126 30.875 21.126Z" fill="#8A3BFC"/>
<path d="M30.875 17.876H24.375C23.9257 17.876 23.5625 17.5128 23.5625 17.0635C23.5625 16.6142 23.9257 16.251 24.375 16.251H30.875C31.3243 16.251 31.6875 16.6142 31.6875 17.0635C31.6875 17.5128 31.3243 17.876 30.875 17.876Z" fill="#8A3BFC"/>
<path d="M17.0625 25.1886C16.6132 25.1886 16.25 24.8254 16.25 24.3761C16.25 19.896 19.8949 16.252 24.375 16.252C24.8243 16.252 25.1875 16.6151 25.1875 17.0645C25.1875 17.5138 24.8243 17.877 24.375 17.877C20.7911 17.877 17.875 20.7922 17.875 24.3761C17.875 24.8254 17.5118 25.1886 17.0625 25.1886Z" fill="#8A3BFC"/>
<path d="M34.9377 29.2512C34.7297 29.2512 34.5217 29.1716 34.3633 29.0131L31.9258 26.5756C31.6081 26.2579 31.6081 25.7444 31.9258 25.4267C32.2435 25.1091 32.757 25.1091 33.0746 25.4267L35.5121 27.8642C35.8298 28.1819 35.8298 28.6954 35.5121 29.0131C35.3537 29.1716 35.1457 29.2512 34.9377 29.2512Z" fill="#8A3BFC"/>
<path d="M26.0001 28.4384C22.3561 28.4384 19.2458 26.7865 19.115 26.7167C18.7201 26.5038 18.5723 26.0122 18.7843 25.6165C18.9972 25.2225 19.4871 25.0705 19.8844 25.285C19.9129 25.3005 22.7769 26.8134 26.0001 26.8134C29.2396 26.8134 32.0866 25.3013 32.115 25.285C32.5091 25.0722 33.0031 25.22 33.2151 25.6157C33.428 26.0106 33.2793 26.5038 32.8844 26.7159C32.7544 26.7865 29.6442 28.4384 26.0001 28.4384Z" fill="#8A3BFC"/>
<path d="M17.0627 29.2512C16.8547 29.2512 16.6467 29.1716 16.4883 29.0131C16.1706 28.6954 16.1706 28.1819 16.4883 27.8642L18.9258 25.4267C19.2435 25.1091 19.757 25.1091 20.0746 25.4267C20.3923 25.7444 20.3923 26.2579 20.0746 26.5756L17.6371 29.0131C17.4787 29.1716 17.2707 29.2512 17.0627 29.2512Z" fill="#8A3BFC"/>
<path d="M23.5627 44.6888C23.3547 44.6888 23.1467 44.6092 22.9883 44.4508L21.3633 42.8266C21.0456 42.5089 21.0456 41.9954 21.3633 41.6777C21.681 41.36 22.1945 41.36 22.5121 41.6777L24.1371 43.3019C24.4548 43.6196 24.4548 44.1331 24.1371 44.4508C23.9787 44.6092 23.7707 44.6888 23.5627 44.6888Z" fill="#8A3BFC"/>
<path d="M23.5623 44.6894C23.2219 44.6894 22.905 44.4741 22.7921 44.1337C22.6499 43.7079 22.8798 43.2472 23.3056 43.1059L25.7431 42.2934C26.1721 42.1504 26.6287 42.3811 26.7709 42.8069C26.9131 43.2326 26.6831 43.6933 26.2574 43.8347L23.8199 44.6472C23.7338 44.6756 23.6468 44.6894 23.5623 44.6894Z" fill="#8A3BFC"/>
<path d="M28.4377 44.6888C28.2297 44.6888 28.0217 44.6092 27.8633 44.4508C27.5456 44.1331 27.5456 43.6196 27.8633 43.3019L29.4883 41.6777C29.8059 41.36 30.3195 41.36 30.6371 41.6777C30.9548 41.9954 30.9548 42.5089 30.6371 42.8266L29.0121 44.4508C28.8537 44.6092 28.6457 44.6888 28.4377 44.6888Z" fill="#8A3BFC"/>
<path d="M28.4372 44.6893C28.3527 44.6893 28.2658 44.6755 28.1805 44.6471L25.743 43.8346C25.3181 43.6932 25.0873 43.2333 25.2295 42.8068C25.3717 42.3818 25.8275 42.1503 26.2573 42.2933L28.6948 43.1058C29.1197 43.2472 29.3505 43.707 29.2083 44.1336C29.0946 44.474 28.7777 44.6893 28.4372 44.6893Z" fill="#8A3BFC"/>
<path d="M36.5625 52.001C36.1132 52.001 35.75 51.6378 35.75 51.1885C35.75 50.7392 36.1132 50.376 36.5625 50.376C37.011 50.376 37.375 50.012 37.375 49.5635C37.375 49.1142 37.7382 48.751 38.1875 48.751C38.6368 48.751 39 49.1142 39 49.5635C39 50.9073 37.9064 52.001 36.5625 52.001Z" fill="#8A3BFC"/>
<path d="M15.4375 52.001C14.0936 52.001 13 50.9073 13 49.5635C13 49.1142 13.3632 48.751 13.8125 48.751C14.2618 48.751 14.625 49.1142 14.625 49.5635C14.625 50.012 14.989 50.376 15.4375 50.376C15.8868 50.376 16.25 50.7392 16.25 51.1885C16.25 51.6378 15.8868 52.001 15.4375 52.001Z" fill="#8A3BFC"/>
<path d="M26.0246 47.9385C25.5753 47.9385 25.208 47.5753 25.208 47.126C25.208 46.6767 25.5671 46.3135 26.0156 46.3135H26.0246C26.4731 46.3135 26.8371 46.6767 26.8371 47.126C26.8371 47.5753 26.4731 47.9385 26.0246 47.9385Z" fill="#8A3BFC"/>
<path d="M6.52457 24.376C6.07526 24.376 5.70801 24.0128 5.70801 23.5635C5.70801 23.1142 6.06713 22.751 6.51563 22.751H6.52457C6.97307 22.751 7.33707 23.1142 7.33707 23.5635C7.33707 24.0128 6.97307 24.376 6.52457 24.376Z" fill="#8A3BFC"/>
<path d="M6.5 31.6883H6.49837C3.36375 31.6883 0.8125 29.1363 0.8125 26.0008C0.8125 22.8646 3.36456 20.3125 6.5 20.3125C9.63544 20.3125 12.1875 22.8646 12.1875 26C12.1875 29.1354 9.63625 31.6875 6.5 31.6883ZM6.5 21.9375C4.25994 21.9375 2.4375 23.7599 2.4375 26.0008C2.4375 28.2409 4.25912 30.0633 6.49837 30.0633C8.73925 30.0625 10.5625 28.2401 10.5625 26C10.5625 23.7599 8.74006 21.9375 6.5 21.9375Z" fill="#8A3BFC"/>
<path d="M6.5 29.2516C6.05069 29.2516 5.6875 28.8884 5.6875 28.4391V26C5.6875 25.5507 6.05069 25.1875 6.5 25.1875C6.94931 25.1875 7.3125 25.5507 7.3125 26V28.4391C7.3125 28.8884 6.94931 29.2516 6.5 29.2516Z" fill="#8A3BFC"/>
<path d="M13.8127 26.8135H11.376C10.9267 26.8135 10.5635 26.4503 10.5635 26.001C10.5635 25.5517 10.9267 25.1885 11.376 25.1885H13.8127C14.262 25.1885 14.6252 25.5517 14.6252 26.001C14.6252 26.4503 14.262 26.8135 13.8127 26.8135Z" fill="#8A3BFC"/>
<path d="M45.5246 24.376C45.0753 24.376 44.708 24.0128 44.708 23.5635C44.708 23.1142 45.0671 22.751 45.5156 22.751H45.5246C45.9731 22.751 46.3371 23.1142 46.3371 23.5635C46.3371 24.0128 45.9731 24.376 45.5246 24.376Z" fill="#8A3BFC"/>
<path d="M45.501 31.6883C42.3655 31.6883 39.8135 29.1363 39.8135 26.0008C39.8143 22.8654 42.3655 20.3133 45.5002 20.3125C48.6356 20.3125 51.1877 22.8646 51.1877 26.0016C51.1877 29.1371 48.6364 31.6883 45.501 31.6883ZM45.5002 21.9375C43.2609 21.9383 41.4393 23.7607 41.4385 26.0008C41.4385 28.2409 43.2609 30.0633 45.501 30.0633C47.741 30.0633 49.5627 28.2417 49.5627 26.0016C49.5627 23.7607 47.7402 21.9375 45.5002 21.9375Z" fill="#8A3BFC"/>
<path d="M45.5008 29.2508C45.0523 29.2508 44.6883 28.8876 44.6883 28.4383L44.6875 26C44.6875 25.5515 45.0507 25.1875 45.5 25.1875C45.9485 25.1875 46.3125 25.5507 46.3125 26L46.3133 28.4383C46.3133 28.8868 45.9501 29.2508 45.5008 29.2508Z" fill="#8A3BFC"/>
<path d="M40.625 26.8143L38.1875 26.8135C37.7382 26.8135 37.375 26.4495 37.375 26.001C37.375 25.5517 37.739 25.1885 38.1875 25.1885L40.625 25.1893C41.0743 25.1893 41.4375 25.5533 41.4375 26.0018C41.4375 26.4511 41.0735 26.8143 40.625 26.8143Z" fill="#8A3BFC"/>
<path d="M40.3879 10.0117C39.9385 10.0117 39.5713 9.64853 39.5713 9.19922C39.5713 8.74991 39.9304 8.38672 40.3789 8.38672H40.3879C40.8363 8.38672 41.2003 8.74991 41.2003 9.19922C41.2003 9.64853 40.8363 10.0117 40.3879 10.0117Z" fill="#8A3BFC"/>
<path d="M40.3644 17.3258C37.229 17.3258 34.6777 14.7738 34.6777 11.6383C34.6777 8.50372 37.229 5.95084 40.3636 5.94922C43.4999 5.94922 46.0511 8.50128 46.0511 11.6383C46.0511 14.7746 43.4999 17.3258 40.3644 17.3258ZM40.3644 7.57422C38.1252 7.57584 36.3027 9.39828 36.3027 11.6383C36.3027 13.8784 38.1244 15.7008 40.3644 15.7008C42.6045 15.7008 44.4261 13.8784 44.4261 11.6383C44.4261 9.39747 42.6045 7.57422 40.3644 7.57422Z" fill="#8A3BFC"/>
<path d="M40.3649 14.8875C39.9164 14.8875 39.5524 14.5243 39.5524 14.0758L39.5508 11.6375C39.5508 11.1882 39.914 10.8242 40.3625 10.8242H40.3633C40.8118 10.8242 41.1758 11.1874 41.1758 11.6359L41.1774 14.0742C41.1774 14.5235 40.8134 14.8875 40.3649 14.8875Z" fill="#8A3BFC"/>
<path d="M35.1926 17.6211C34.9846 17.6211 34.7766 17.5415 34.6181 17.3831C34.3005 17.0654 34.3005 16.5511 34.6181 16.2342L36.3423 14.5117C36.66 14.194 37.1735 14.194 37.4911 14.5117C37.8088 14.8294 37.8088 15.3437 37.4911 15.6606L35.767 17.3831C35.6086 17.5415 35.4006 17.6211 35.1926 17.6211Z" fill="#8A3BFC"/>
<path d="M26.0236 4.0625C25.5743 4.0625 25.207 3.69931 25.207 3.25C25.207 2.80069 25.5662 2.4375 26.0147 2.4375H26.0236C26.4721 2.4375 26.8361 2.80069 26.8361 3.25C26.8361 3.69931 26.4721 4.0625 26.0236 4.0625Z" fill="#8A3BFC"/>
<path d="M26 11.3747C22.8646 11.3747 20.3125 8.82261 20.3125 5.68717C20.3125 2.55255 22.8638 -0.000328125 25.9992 -0.00195312C29.1354 -0.00195312 31.6875 2.55011 31.6875 5.68717C31.6875 8.82261 29.1354 11.3747 26 11.3747ZM26 1.62305C23.7599 1.62467 21.9375 3.44711 21.9375 5.68717C21.9375 7.92723 23.7599 9.74967 26 9.74967C28.2401 9.74967 30.0625 7.92723 30.0625 5.68717C30.0625 3.4463 28.2401 1.62305 26 1.62305Z" fill="#8A3BFC"/>
<path d="M26 8.93717C25.5507 8.93717 25.1875 8.57398 25.1875 8.12467V5.68555C25.1875 5.23623 25.5507 4.87305 26 4.87305C26.4493 4.87305 26.8125 5.23623 26.8125 5.68555V8.12467C26.8125 8.57398 26.4493 8.93717 26 8.93717Z" fill="#8A3BFC"/>
<path d="M26.0019 13.8125C25.5526 13.8125 25.1895 13.4493 25.1895 13V10.5625C25.1895 10.1132 25.5526 9.75 26.0019 9.75C26.4513 9.75 26.8144 10.1132 26.8144 10.5625V13C26.8144 13.4493 26.4513 13.8125 26.0019 13.8125Z" fill="#8A3BFC"/>
<path d="M11.6603 10.0117C11.211 10.0117 10.8438 9.64853 10.8438 9.19922C10.8438 8.74991 11.2029 8.38672 11.6514 8.38672H11.6603C12.1088 8.38672 12.4728 8.74991 12.4728 9.19922C12.4728 9.64853 12.108 10.0117 11.6603 10.0117Z" fill="#8A3BFC"/>
<path d="M11.6379 17.3239C8.50242 17.3239 5.95117 14.7718 5.95117 11.6364C5.95036 8.50258 8.50161 5.9497 11.637 5.94727C13.1572 5.94727 14.5856 6.53958 15.6597 7.61452C16.7331 8.68864 17.3254 10.1178 17.3246 11.6364C17.3246 14.7726 14.7741 17.3239 11.6379 17.3239ZM11.6379 7.57227C9.3978 7.57389 7.57536 9.39714 7.57617 11.6364C7.57617 13.8765 9.3978 15.6989 11.6379 15.6989C13.8779 15.6989 15.6995 13.8765 15.6995 11.6364C15.6995 10.5509 15.277 9.53039 14.51 8.76258C13.743 7.99558 12.7234 7.57227 11.6379 7.57227Z" fill="#8A3BFC"/>
<path d="M11.6377 14.8866C11.1884 14.8866 10.8252 14.5234 10.8252 14.0741V11.6357C10.8252 11.1864 11.1884 10.8232 11.6377 10.8232C12.087 10.8232 12.4502 11.1864 12.4502 11.6357V14.0741C12.4502 14.5234 12.087 14.8866 11.6377 14.8866Z" fill="#8A3BFC"/>
<path d="M16.8085 17.619C16.6005 17.619 16.3925 17.5394 16.234 17.381L14.5107 15.6576C14.193 15.34 14.193 14.8265 14.5107 14.5088C14.8284 14.1911 15.3419 14.1911 15.6596 14.5088L17.3829 16.2321C17.7006 16.5498 17.7006 17.0633 17.3829 17.381C17.2237 17.5394 17.0157 17.619 16.8085 17.619Z" fill="#8A3BFC"/>
</g>
<defs>
<clipPath id="clip0">
<rect width="52" height="52" fill="white"/>
</clipPath>
</defs>
</svg>
