<svg width="52" height="52" viewBox="0 0 52 52" fill="none" xmlns="http://www.w3.org/2000/svg">
<g clip-path="url(#clip0)">
<path d="M5.69531 24.7812H41.4616V36.9688H5.69531V24.7812Z" fill="#E2D3F8"/>
<path d="M5.69531 36.9688H41.4616V49.1644H5.69531V36.9688Z" fill="#E2D3F8"/>
<path d="M5.69531 12.585H41.4616V24.7806H5.69531V12.585Z" fill="#E2D3F8"/>
<path d="M31.6875 9.78184L33.5067 10.8218C33.3856 11.3906 33.3125 11.9837 33.3125 12.585H5.69563L0.8125 7.70996H32.8819L31.6875 9.78184Z" fill="#A785DA"/>
<path d="M10.5858 10.5131L8.7666 9.47309C8.88766 8.90515 8.96079 8.31121 8.96079 7.70996H36.5777L41.4608 12.585H9.39223L10.5858 10.5131Z" fill="#A785DA"/>
<path d="M5.69563 12.585V24.7806L0.820625 19.9056H0.8125V7.70996L5.69563 12.585Z" fill="#A785DA"/>
<path d="M5.69563 24.7812V36.9688L0.89375 32.1669H0.8125V19.9062H0.820625L5.69563 24.7812Z" fill="#A785DA"/>
<path d="M5.69563 36.9689V49.1645L0.820625 44.2895L0.8125 44.2814V32.167H0.89375L5.69563 36.9689Z" fill="#A785DA"/>
<path d="M11.7809 28.8525C12.9022 28.8525 13.8122 29.7544 13.8122 30.8757C13.8122 31.9969 12.9022 32.9069 11.7809 32.9069C10.6597 32.9069 9.75781 31.9969 9.75781 30.8757C9.75781 29.7544 10.6597 28.8525 11.7809 28.8525Z" fill="#A785DA"/>
<path d="M48.75 5.55684L51.1875 9.78184L49.3675 10.8218C49.4894 11.3906 49.5625 11.9837 49.5625 12.585C49.5625 13.1943 49.4894 13.7793 49.3675 14.3481L51.1875 15.3068L48.75 19.5318L46.9219 18.565C46.0525 19.3612 45.0206 19.9787 43.875 20.337V22.3358H41.4611H39V20.337C37.8544 19.9795 36.8144 19.362 35.9531 18.565L34.125 19.5318L31.6875 15.3068L33.5067 14.3481C33.3856 13.7793 33.3125 13.1943 33.3125 12.585C33.3125 11.9837 33.3856 11.3898 33.5067 10.8218L31.6875 9.78184L32.8819 7.70996L34.125 5.55684L35.9531 6.60496C36.8144 5.80871 37.8544 5.19121 39 4.83371V2.83496H43.875V4.83371C45.0206 5.1904 46.0525 5.80871 46.9219 6.60496L48.75 5.55684ZM46.3125 12.585C46.3125 9.89477 44.1269 7.70996 41.4375 7.70996C38.74 7.70996 36.5625 9.89477 36.5625 12.585C36.5625 15.2817 38.74 17.46 41.4375 17.46C44.1269 17.46 46.3125 15.2825 46.3125 12.585Z" fill="#ECD9FF"/>
<path d="M43.875 12.585C43.875 11.2443 42.7773 10.1475 41.4375 10.1475C40.0969 10.1475 39 11.2443 39 12.585C39 13.9337 40.0969 15.0225 41.4375 15.0225C42.7773 15.0225 43.875 13.9337 43.875 12.585ZM41.4375 7.70996C44.1269 7.70996 46.3125 9.89477 46.3125 12.585C46.3125 15.2817 44.1269 17.46 41.4375 17.46C38.74 17.46 36.5625 15.2817 36.5625 12.585C36.5625 9.89559 38.74 7.70996 41.4375 7.70996Z" fill="#E2D3F8"/>
<path d="M13.8122 18.6875C13.8122 17.5663 12.9022 16.6562 11.7809 16.6562C10.6597 16.6562 9.75781 17.5663 9.75781 18.6875C9.75781 19.8006 10.6597 20.7106 11.7809 20.7106C12.9022 20.7106 13.8122 19.8006 13.8122 18.6875Z" fill="#A785DA"/>
<path d="M11.7809 41.04C12.9022 41.04 13.8122 41.95 13.8122 43.0713C13.8122 44.1925 12.9022 45.0944 11.7809 45.0944C10.6597 45.0944 9.75781 44.1925 9.75781 43.0713C9.75781 41.95 10.6597 41.04 11.7809 41.04Z" fill="#A785DA"/>
<path d="M41.463 25.5907H5.69922C5.24991 25.5907 4.88672 25.2275 4.88672 24.7782V12.585C4.88672 12.1356 5.24991 11.7725 5.69922 11.7725H33.3161C33.7654 11.7725 34.1286 12.1356 34.1286 12.585C34.1286 13.0343 33.7654 13.3975 33.3161 13.3975H6.51172V23.9657H40.6513V22.3407C40.6513 21.8913 41.0145 21.5282 41.4638 21.5282C41.9132 21.5282 42.2763 21.8913 42.2763 22.3407V24.7782C42.2755 25.2275 41.9123 25.5907 41.463 25.5907Z" fill="#8A3BFC"/>
<path d="M29.2759 21.5259C28.9542 21.5259 28.6487 21.3333 28.5211 21.0148L26.8961 16.9499C26.7295 16.533 26.9327 16.0602 27.3495 15.8936C27.7663 15.7262 28.2392 15.9294 28.4057 16.347L30.0307 20.4119C30.1973 20.8287 29.9942 21.3016 29.5774 21.4682C29.4782 21.508 29.3767 21.5259 29.2759 21.5259Z" fill="#8A3BFC"/>
<path d="M41.463 37.784H5.69922C5.24991 37.784 4.88672 37.4208 4.88672 36.9715V24.7783C4.88672 24.329 5.24991 23.9658 5.69922 23.9658H41.4638C41.9132 23.9658 42.2763 24.329 42.2763 24.7783V36.9715C42.2755 37.4208 41.9123 37.784 41.463 37.784ZM6.51172 36.159H40.6513V25.5908H6.51172V36.159Z" fill="#8A3BFC"/>
<path d="M37.4009 33.7196C37.0792 33.7196 36.7737 33.5271 36.6461 33.2086L35.0211 29.1436C34.8545 28.7268 35.0577 28.2539 35.4745 28.0874C35.8905 27.9216 36.3642 28.1223 36.5307 28.5408L38.1557 32.6057C38.3223 33.0225 38.1192 33.4954 37.7024 33.6619C37.6032 33.7009 37.5017 33.7196 37.4009 33.7196Z" fill="#8A3BFC"/>
<path d="M33.3384 33.7196C33.0167 33.7196 32.7112 33.5271 32.5836 33.2086L30.9586 29.1436C30.792 28.7268 30.9952 28.2539 31.412 28.0874C31.8296 27.9216 32.3017 28.1223 32.4682 28.5408L34.0932 32.6057C34.2598 33.0225 34.0567 33.4954 33.6399 33.6619C33.5407 33.7009 33.4392 33.7196 33.3384 33.7196Z" fill="#8A3BFC"/>
<path d="M29.2759 33.7196C28.9542 33.7196 28.6487 33.5271 28.5211 33.2086L26.8961 29.1436C26.7295 28.7268 26.9327 28.2539 27.3495 28.0874C27.7663 27.9216 28.2392 28.1223 28.4057 28.5408L30.0307 32.6057C30.1973 33.0225 29.9942 33.4954 29.5774 33.6619C29.4782 33.7009 29.3767 33.7196 29.2759 33.7196Z" fill="#8A3BFC"/>
<path d="M41.463 49.9764H5.69922C5.24991 49.9764 4.88672 49.6132 4.88672 49.1639V36.9707C4.88672 36.5214 5.24991 36.1582 5.69922 36.1582H41.4638C41.9132 36.1582 42.2763 36.5214 42.2763 36.9707V49.1639C42.2755 49.6124 41.9123 49.9764 41.463 49.9764ZM6.51172 48.3514H40.6513V37.7832H6.51172V48.3514Z" fill="#8A3BFC"/>
<path d="M37.4009 45.913C37.0792 45.913 36.7737 45.7204 36.6461 45.4019L35.0211 41.337C34.8545 40.9202 35.0577 40.4473 35.4745 40.2807C35.8905 40.115 36.3642 40.3157 36.5307 40.7341L38.1557 44.7991C38.3223 45.2159 38.1192 45.6887 37.7024 45.8553C37.6032 45.8943 37.5017 45.913 37.4009 45.913Z" fill="#8A3BFC"/>
<path d="M33.3384 45.913C33.0167 45.913 32.7112 45.7204 32.5836 45.4019L30.9586 41.337C30.792 40.9202 30.9952 40.4473 31.412 40.2807C31.8296 40.115 32.3017 40.3157 32.4682 40.7341L34.0932 44.7991C34.2598 45.2159 34.0567 45.6887 33.6399 45.8553C33.5407 45.8943 33.4392 45.913 33.3384 45.913Z" fill="#8A3BFC"/>
<path d="M29.2759 45.913C28.9542 45.913 28.6487 45.7204 28.5211 45.4019L26.8961 41.337C26.7295 40.9202 26.9327 40.4473 27.3495 40.2807C27.7663 40.115 28.2392 40.3157 28.4057 40.7341L30.0307 44.7991C30.1973 45.2159 29.9942 45.6887 29.5774 45.8553C29.4782 45.8943 29.3767 45.913 29.2759 45.913Z" fill="#8A3BFC"/>
<path d="M25.2085 21.5259C24.8868 21.5259 24.5813 21.3333 24.4537 21.0148L22.8287 16.9499C22.6622 16.533 22.8653 16.0602 23.2821 15.8936C23.6989 15.7262 24.1718 15.9294 24.3383 16.347L25.9633 20.4119C26.1299 20.8287 25.9268 21.3016 25.5099 21.4682C25.4108 21.508 25.3093 21.5259 25.2085 21.5259Z" fill="#8A3BFC"/>
<path d="M25.2085 33.7196C24.8868 33.7196 24.5813 33.5271 24.4537 33.2086L22.8287 29.1436C22.6622 28.7268 22.8653 28.2539 23.2821 28.0874C23.6989 27.9216 24.1718 28.1223 24.3383 28.5408L25.9633 32.6057C26.1299 33.0225 25.9268 33.4954 25.5099 33.6619C25.4108 33.7009 25.3093 33.7196 25.2085 33.7196Z" fill="#8A3BFC"/>
<path d="M25.2085 45.913C24.8868 45.913 24.5813 45.7204 24.4537 45.4019L22.8287 41.337C22.6622 40.9202 22.8653 40.4473 23.2821 40.2807C23.6989 40.115 24.1718 40.3157 24.3383 40.7341L25.9633 44.7991C26.1299 45.2159 25.9268 45.6887 25.5099 45.8553C25.4108 45.8943 25.3093 45.913 25.2085 45.913Z" fill="#8A3BFC"/>
<path d="M5.69984 13.3975C5.49184 13.3975 5.28384 13.3179 5.1254 13.1602L0.242274 8.28362C-0.075414 7.96594 -0.0754139 7.45244 0.241461 7.13394C0.559148 6.81706 1.07346 6.81787 1.39115 7.13312L6.27427 12.0097C6.59196 12.3274 6.59196 12.8409 6.27509 13.1594C6.11584 13.3187 5.90784 13.3975 5.69984 13.3975Z" fill="#8A3BFC"/>
<path d="M32.8863 8.52051H0.80957C0.360258 8.52051 -0.00292969 8.15732 -0.00292969 7.70801C-0.00292969 7.2587 0.360258 6.89551 0.80957 6.89551H32.8863C33.3356 6.89551 33.6988 7.2587 33.6988 7.70801C33.6988 8.15732 33.3348 8.52051 32.8863 8.52051Z" fill="#8A3BFC"/>
<path d="M11.7842 45.9077C10.2185 45.9077 8.94531 44.6337 8.94531 43.068C8.94531 41.5015 10.2185 40.2275 11.7842 40.2275C13.3507 40.2275 14.6247 41.5015 14.6247 43.068C14.6247 44.6337 13.3507 45.9077 11.7842 45.9077ZM11.7842 41.8525C11.1147 41.8525 10.5703 42.3977 10.5703 43.068C10.5703 43.7375 11.1147 44.2827 11.7842 44.2827C12.4545 44.2827 12.9997 43.7375 12.9997 43.068C12.9997 42.3977 12.4545 41.8525 11.7842 41.8525Z" fill="#8A3BFC"/>
<path d="M11.7858 33.716C10.2193 33.716 8.94531 32.442 8.94531 30.8747C8.94531 29.3082 10.2193 28.0342 11.7858 28.0342C13.3523 28.0342 14.6263 29.3082 14.6263 30.8747C14.6263 32.442 13.3523 33.716 11.7858 33.716ZM11.7858 29.6592C11.1155 29.6592 10.5703 30.2044 10.5703 30.8747C10.5703 31.545 11.1155 32.091 11.7858 32.091C12.4561 32.091 13.0013 31.545 13.0013 30.8747C13.0013 30.2044 12.4561 29.6592 11.7858 29.6592Z" fill="#8A3BFC"/>
<path d="M11.7858 21.5226C10.2193 21.5226 8.94531 20.2486 8.94531 18.6821C8.94531 17.1148 10.2193 15.8408 11.7858 15.8408C13.3523 15.8408 14.6263 17.1148 14.6263 18.6821C14.6263 20.2486 13.3523 21.5226 11.7858 21.5226ZM11.7858 17.4658C11.1155 17.4658 10.5703 18.0118 10.5703 18.6821C10.5703 19.3524 11.1155 19.8976 11.7858 19.8976C12.4561 19.8976 13.0013 19.3524 13.0013 18.6821C13.0013 18.0118 12.4561 17.4658 11.7858 17.4658Z" fill="#8A3BFC"/>
<path d="M0.81543 45.0944C0.366117 45.0944 0.00292969 44.7312 0.00292969 44.2819V7.70801C0.00292969 7.2587 0.366117 6.89551 0.81543 6.89551C1.26474 6.89551 1.62793 7.2587 1.62793 7.70801V44.2819C1.62793 44.7312 1.26474 45.0944 0.81543 45.0944Z" fill="#8A3BFC"/>
<path d="M5.69942 25.591C5.49142 25.591 5.28342 25.5114 5.12498 25.353L0.249984 20.478C-0.0677031 20.1603 -0.0677031 19.6468 0.249984 19.3291C0.567672 19.0114 1.08117 19.0114 1.39886 19.3291L6.27386 24.2041C6.59155 24.5218 6.59155 25.0353 6.27386 25.353C6.11461 25.5114 5.90742 25.591 5.69942 25.591Z" fill="#8A3BFC"/>
<path d="M5.69921 37.7832C5.49121 37.7832 5.28321 37.7036 5.12477 37.5451L0.321273 32.7416C0.00358593 32.4239 0.00358593 31.9104 0.321273 31.5928C0.638961 31.2751 1.15246 31.2751 1.47015 31.5928L6.27365 36.3963C6.59134 36.7139 6.59134 37.2274 6.27365 37.5451C6.1144 37.7036 5.90721 37.7832 5.69921 37.7832Z" fill="#8A3BFC"/>
<path d="M5.69877 49.9773C5.49077 49.9773 5.28277 49.8976 5.12433 49.7392L0.246078 44.8618C-0.0716094 44.5441 -0.0716094 44.0306 0.246078 43.7129C0.563766 43.3952 1.07727 43.3952 1.39495 43.7129L6.2732 48.5903C6.59089 48.908 6.59089 49.4215 6.2732 49.7392C6.11395 49.8976 5.90677 49.9773 5.69877 49.9773Z" fill="#8A3BFC"/>
<path d="M43.8784 23.1475H39.0034C38.5541 23.1475 38.1909 22.7843 38.1909 22.335V20.9115C37.3467 20.5816 36.561 20.1233 35.8436 19.5424L34.507 20.2477C34.1194 20.4508 33.6417 20.3126 33.4239 19.9348L30.9864 15.7131C30.8759 15.5222 30.8483 15.293 30.9092 15.0818C30.9702 14.8689 31.1156 14.6918 31.3114 14.5886L32.6041 13.9077C32.5367 13.4633 32.5026 13.0205 32.5026 12.585C32.5026 12.1421 32.5375 11.6912 32.6074 11.2403L31.2862 10.4846C31.0994 10.3774 30.9621 10.1995 30.9052 9.99146C30.8483 9.78346 30.8784 9.56084 30.9864 9.37315L33.4239 5.1514C33.6482 4.76302 34.1422 4.62977 34.5314 4.8524L35.8598 5.61371C36.5724 5.04009 37.3532 4.5859 38.1901 4.25927V2.83496C38.1901 2.38565 38.5532 2.02246 39.0026 2.02246H43.8776C44.3269 2.02246 44.6901 2.38565 44.6901 2.83496V4.25846C45.5261 4.58509 46.3053 5.03927 47.0187 5.61209L48.3496 4.85077C48.7379 4.62815 49.2327 4.76384 49.4562 5.14977L51.8937 9.37234C52.0018 9.55921 52.031 9.78184 51.9749 9.99065C51.9189 10.1995 51.7816 10.3774 51.5939 10.4838L50.2728 11.2395C50.3426 11.6912 50.3776 12.1413 50.3776 12.5841C50.3776 13.0196 50.3434 13.4625 50.276 13.9069L51.5687 14.5878C51.7645 14.691 51.9099 14.8689 51.9709 15.081C52.0318 15.293 52.0042 15.5213 51.8937 15.7123L49.4562 19.934C49.2384 20.3127 48.7623 20.4508 48.3739 20.2468L47.0357 19.5416C46.3199 20.1217 45.5351 20.58 44.6901 20.9107V22.3342C44.6909 22.7843 44.3277 23.1475 43.8784 23.1475ZM39.8159 21.5225H43.0659V20.337C43.0659 19.982 43.2958 19.6683 43.6346 19.5619C44.6494 19.2426 45.5716 18.7063 46.3752 17.9678C46.6287 17.7354 47.0016 17.6883 47.3039 17.8475L48.4406 18.4463L50.0648 15.6326L48.9906 15.0663C48.6673 14.8957 48.4974 14.5301 48.5754 14.1718C48.6941 13.638 48.7534 13.1041 48.7534 12.585C48.7534 12.065 48.6941 11.5311 48.5754 10.9973C48.4991 10.6496 48.6575 10.2937 48.9646 10.1166L50.0786 9.47959L48.4536 6.66346L47.3282 7.30777C47.0219 7.48327 46.636 7.4394 46.376 7.20134C45.5692 6.46196 44.6462 5.92652 43.6346 5.60802C43.2958 5.50159 43.0659 5.18715 43.0659 4.8329V3.64746H39.8159V4.8329C39.8159 5.18796 39.5859 5.50159 39.2471 5.60802C38.2331 5.92652 37.3101 6.46277 36.5041 7.20215C36.2425 7.44021 35.8574 7.48327 35.5511 7.30859L34.4274 6.66509L32.8024 9.47959L33.9163 10.1166C34.2242 10.2937 34.3819 10.6496 34.3055 10.9973C34.1869 11.5311 34.1276 12.065 34.1276 12.585C34.1276 13.1041 34.1869 13.638 34.3055 14.1718C34.3843 14.5293 34.2145 14.8957 33.8903 15.0663L32.8162 15.6326L34.4404 18.4463L35.5746 17.8475C35.8785 17.6883 36.2506 17.7354 36.5033 17.967C37.3093 18.7063 38.2323 19.2426 39.2463 19.5619C39.5851 19.6683 39.8151 19.9828 39.8151 20.337V21.5225H39.8159Z" fill="#8A3BFC"/>
<path d="M41.4404 18.2725C38.305 18.2725 35.7529 15.7204 35.7529 12.585C35.7529 9.44952 38.305 6.89746 41.4404 6.89746C44.5759 6.89746 47.1279 9.44952 47.1279 12.585C47.1279 15.7204 44.5759 18.2725 41.4404 18.2725ZM41.4404 8.52246C39.2004 8.52246 37.3779 10.3449 37.3779 12.585C37.3779 14.825 39.2004 16.6475 41.4404 16.6475C43.6805 16.6475 45.5029 14.825 45.5029 12.585C45.5029 10.3449 43.6805 8.52246 41.4404 8.52246Z" fill="#8A3BFC"/>
<path d="M41.4404 15.835C39.6481 15.835 38.1904 14.3773 38.1904 12.585C38.1904 10.7926 39.6481 9.33496 41.4404 9.33496C43.2328 9.33496 44.6904 10.7926 44.6904 12.585C44.6904 14.3773 43.2328 15.835 41.4404 15.835ZM41.4404 10.96C40.5442 10.96 39.8154 11.6888 39.8154 12.585C39.8154 13.4812 40.5442 14.21 41.4404 14.21C42.3366 14.21 43.0654 13.4812 43.0654 12.585C43.0654 11.6888 42.3358 10.96 41.4404 10.96Z" fill="#8A3BFC"/>
</g>
<defs>
<clipPath id="clip0">
<rect width="52" height="52" fill="white"/>
</clipPath>
</defs>
</svg>
