<svg width="20" height="16" viewBox="0 0 20 16" fill="none" xmlns="http://www.w3.org/2000/svg">
<path d="M19.7653 3.97163C19.5534 2.17619 18.189 0.74049 16.4472 0.48041C12.1617 -0.159508 7.82409 -0.160136 3.55452 0.478527C1.81211 0.739234 0.447059 2.17477 0.235114 3.96975C-0.0807441 6.64322 -0.0783027 9.35828 0.242133 12.0391C0.456214 13.83 1.82096 15.2624 3.56108 15.5223C7.82287 16.1593 12.1559 16.1597 16.44 15.5206C18.1793 15.2612 19.5436 13.8289 19.7579 12.0377C20.0781 9.35749 20.0807 6.64369 19.7653 3.97163ZM18.207 11.8417C18.0786 12.9156 17.2598 13.7743 16.2158 13.93C12.0839 14.5464 7.90176 14.547 3.78569 13.9319C2.74077 13.7757 1.92137 12.9168 1.79304 11.8431C1.48802 9.29141 1.48573 6.70773 1.78617 4.16359C1.91343 3.08701 2.73298 2.22563 3.77928 2.06914C7.89626 1.45324 12.0827 1.45277 16.2227 2.07102C17.2681 2.2272 18.087 3.08843 18.2141 4.16532C18.5143 6.70804 18.5118 9.29078 18.207 11.8417ZM14.0082 7.28109L7.86224 4.12011C7.34374 3.85344 6.73156 4.2416 6.73156 4.83898V11.1609C6.73156 11.7597 7.34496 12.1459 7.86224 11.8798L14.0082 8.71883C14.5828 8.42328 14.5834 7.57712 14.0082 7.28109ZM8.29406 9.8607V6.13938L11.9119 7.99996L8.29406 9.8607Z" fill="#8A3BFC"/>
</svg>
